<?xml version="1.0" standalone="no"?>
<!DOCTYPE svg PUBLIC "-//W3C//DTD SVG 20010904//EN"
 "http://www.w3.org/TR/2001/REC-SVG-20010904/DTD/svg10.dtd">
<svg version="1.0" xmlns="http://www.w3.org/2000/svg"
 width="500.000000pt" height="500.000000pt" viewBox="0 0 500.000000 500.000000"
 preserveAspectRatio="xMidYMid meet">
<metadata>
Created by potrace 1.14, written by Peter Selinger 2001-2017
</metadata>
<g transform="translate(0.000000,500.000000) scale(0.100000,-0.100000)"
fill="#000000" stroke="none">
<path d="M3065 4499 c-314 -39 -541 -241 -577 -511 -24 -184 27 -336 156 -463
91 -89 197 -152 378 -224 175 -71 227 -97 299 -151 154 -114 199 -302 114
-470 -25 -50 -94 -119 -145 -145 -177 -92 -445 -78 -689 36 -46 21 -87 39 -91
39 -7 0 -70 -204 -70 -227 0 -18 122 -71 224 -98 142 -37 244 -48 390 -42 217
9 372 61 502 166 145 118 228 321 210 516 -26 287 -174 438 -596 610 -284 115
-385 213 -397 385 -9 125 59 240 178 299 85 42 156 54 279 48 112 -6 188 -23
284 -63 34 -14 68 -28 76 -30 12 -4 23 19 49 98 19 57 36 108 38 115 12 31
-189 96 -352 112 -122 12 -159 12 -260 0z"/>
<path d="M1787 3653 c-3 -732 -5 -825 -20 -881 -42 -156 -110 -237 -230 -274
-59 -18 -86 -20 -181 -15 -61 3 -132 12 -159 20 -26 8 -49 12 -51 9 -7 -13
-40 -221 -35 -226 19 -19 143 -39 271 -43 176 -6 259 8 377 68 151 75 248 218
290 426 20 97 21 131 21 917 l0 816 -140 0 -139 0 -4 -817z"/>
<path d="M2870 1320 l0 -571 68 3 67 3 3 568 2 567 -70 0 -70 0 0 -570z"/>
<path d="M3242 1323 l3 -568 68 -3 67 -3 0 571 0 570 -70 0 -70 0 2 -567z"/>
<path d="M1197 1840 c-238 -61 -324 -316 -160 -475 41 -40 92 -68 216 -121
101 -42 145 -76 169 -132 42 -93 3 -193 -91 -235 -35 -16 -66 -20 -126 -20
-74 1 -124 13 -226 57 -13 6 -19 -5 -32 -51 -19 -67 -22 -64 78 -96 101 -32
275 -31 359 2 123 49 196 153 196 280 0 150 -67 227 -272 316 -138 60 -176 87
-200 142 -35 79 -3 164 76 202 57 28 171 29 251 1 32 -11 62 -17 66 -13 3 5
13 29 22 55 l15 47 -56 22 c-65 24 -223 35 -285 19z"/>
<path d="M2502 1807 c-33 -35 -30 -99 4 -126 60 -47 144 -10 144 64 0 76 -97
116 -148 62z"/>
<path d="M3810 1543 c-100 -18 -173 -69 -205 -145 -19 -46 -19 -108 -1 -151
19 -47 97 -111 166 -137 99 -37 147 -73 161 -120 11 -34 10 -46 -4 -75 -23
-48 -68 -69 -147 -69 -48 0 -80 7 -122 26 l-57 26 -17 -50 c-16 -49 -16 -52 2
-65 35 -26 99 -38 199 -38 83 0 108 4 150 23 93 43 135 105 135 202 0 112 -57
176 -210 239 -122 50 -156 93 -127 163 26 62 122 86 212 52 62 -24 67 -23 83
25 14 41 14 45 -4 58 -34 25 -159 46 -214 36z"/>
<path d="M1985 1519 c-149 -48 -246 -177 -262 -345 -17 -178 66 -333 215 -402
51 -24 68 -27 172 -27 129 0 227 24 216 52 -3 8 -9 33 -12 54 -5 32 -10 39
-23 33 -99 -43 -210 -42 -291 2 -65 35 -106 93 -127 180 -38 152 44 317 175
354 52 14 160 12 207 -5 22 -8 42 -11 46 -7 3 4 11 27 18 51 15 51 12 55 -62
71 -77 16 -204 11 -272 -11z"/>
<path d="M2492 1143 l3 -388 68 -3 67 -3 0 391 0 390 -70 0 -70 0 2 -387z"/>
</g>
</svg>
